<svg xmlns="http://www.w3.org/2000/svg" xmlns:xlink="http://www.w3.org/1999/xlink" fill="none" version="1.1" width="1440" height="800" viewBox="0 0 1440 800"><defs><clipPath id="master_svg0_412_29345"><rect x="0" y="0" width="1440" height="800" rx="0"/></clipPath><filter id="master_svg1_412_29349" filterUnits="objectBoundingBox" color-interpolation-filters="sRGB" x="-600" y="-600" width="1666.2944641113281" height="1580.6943359375"><feFlood flood-opacity="0" result="BackgroundImageFix"/><feBlend mode="normal" in="SourceGraphic" in2="BackgroundImageFix" result="shape"/><feGaussianBlur stdDeviation="150" result="effect1_foregroundBlur"/></filter><filter id="master_svg2_412_29347" filterUnits="objectBoundingBox" color-interpolation-filters="sRGB" x="-600" y="-600" width="1666.2944641113281" height="1580.6943359375"><feFlood flood-opacity="0" result="BackgroundImageFix"/><feBlend mode="normal" in="SourceGraphic" in2="BackgroundImageFix" result="shape"/><feGaussianBlur stdDeviation="150" result="effect1_foregroundBlur"/></filter><filter id="master_svg3_412_29355" filterUnits="objectBoundingBox" color-interpolation-filters="sRGB" x="-600" y="-600" width="1666.294189453125" height="1580.6942138671875"><feFlood flood-opacity="0" result="BackgroundImageFix"/><feBlend mode="normal" in="SourceGraphic" in2="BackgroundImageFix" result="shape"/><feGaussianBlur stdDeviation="150" result="effect1_foregroundBlur"/></filter><filter id="master_svg4_412_29353" filterUnits="objectBoundingBox" color-interpolation-filters="sRGB" x="-600" y="-600" width="1666.294189453125" height="1580.6942138671875"><feFlood flood-opacity="0" result="BackgroundImageFix"/><feBlend mode="normal" in="SourceGraphic" in2="BackgroundImageFix" result="shape"/><feGaussianBlur stdDeviation="150" result="effect1_foregroundBlur"/></filter><filter id="master_svg5_412_29351" filterUnits="objectBoundingBox" color-interpolation-filters="sRGB" x="-600" y="-600" width="2598.589111328125" height="1724.4945068359375"><feFlood flood-opacity="0" result="BackgroundImageFix"/><feBlend mode="normal" in="SourceGraphic" in2="BackgroundImageFix" result="shape"/><feGaussianBlur stdDeviation="150" result="effect1_foregroundBlur"/></filter><filter id="master_svg6_412_29357" filterUnits="objectBoundingBox" color-interpolation-filters="sRGB" x="-80" y="-80" width="1371.0009765625" height="454.5242919921875"><feFlood flood-opacity="0" result="BackgroundImageFix"/><feBlend mode="normal" in="SourceGraphic" in2="BackgroundImageFix" result="shape"/><feGaussianBlur stdDeviation="20" result="effect1_foregroundBlur"/></filter><linearGradient x1="0.03171838819980621" y1="0.7897762656211853" x2="1.081098198890686" y2="0.5298146605491638" id="master_svg7_412_25688"><stop offset="0%" stop-color="#8B94F6" stop-opacity="1"/><stop offset="64.99999761581421%" stop-color="#8B94F6" stop-opacity="0"/><stop offset="100%" stop-color="#6874F3" stop-opacity="1"/></linearGradient></defs><g clip-path="url(#master_svg0_412_29345)"><g><g style="opacity:0.30000001192092896;" filter="url(#master_svg1_412_29349)"><g><path d="M217.64157446289062,-4.773027465820306C135.89157446289062,9.24097253417969,114.13057446289065,-83.1210274658203,113.46757446289064,-131.0540004658203C92.87457446289062,-135.11900746582032,11.857574462890625,-95.05222746582032,-147.45902553710937,97.73197253417968C-346.60542553710934,338.7129725341797,-11.080425537109363,209.07197253417968,95.61457446289063,246.23297253417968C202.3105744628906,283.3939725341797,319.82857446289063,-22.290027465820316,217.64157446289062,-4.773027465820306Z" fill="#6874F3" fill-opacity="1"/></g></g><g style="opacity:0.30000001192092896;" filter="url(#master_svg2_412_29347)"><g><path d="M272.0339084472656,599.5521678466797C190.28390844726562,613.5661678466797,168.52290844726565,521.2041678466796,167.85990844726564,473.2711948466797C147.26690844726562,469.2061878466797,66.24990844726562,509.2729678466797,-93.06669155273437,702.0571678466797C-292.21309155273434,943.0381678466797,43.31190844726564,813.3971678466796,150.00690844726563,850.5581678466797C256.7029084472656,887.7191678466797,374.22090844726563,582.0351678466797,272.0339084472656,599.5521678466797Z" fill="#6874F3" fill-opacity="1"/></g></g><g style="opacity:0.30000001192092896;" filter="url(#master_svg3_412_29355)"><g><path d="M1474.6403303222655,39.226972534179694C1392.8903303222655,53.24097253417969,1371.1303303222658,-39.121127465820315,1370.4703303222657,-87.05402346582031C1349.8703303222655,-91.11881746582031,1268.8603303222656,-51.05232746582031,1109.5402303222656,141.73197253417968C910.3953303222656,382.7129725341797,1245.9203303222657,253.07197253417968,1352.6103303222656,290.2329725341797C1459.3103303222656,327.3939725341797,1576.8303303222656,21.708972534179694,1474.6403303222655,39.226972534179694Z" fill="#6874F3" fill-opacity="1"/></g></g><g style="opacity:0.30000001192092896;" filter="url(#master_svg4_412_29353)"><g><path d="M1529.0326643066405,643.5521678466797C1447.2826643066405,657.5661678466797,1425.5226643066408,565.2040678466797,1424.8626643066407,517.2711718466796C1404.2626643066405,513.2063778466797,1323.2526643066406,553.2728678466797,1163.9325643066406,746.0571678466797C964.7876643066406,987.0381678466797,1300.3126643066407,857.3971678466796,1407.0026643066406,894.5581678466797C1513.7026643066406,931.7191678466797,1631.2226643066406,626.0341678466797,1529.0326643066405,643.5521678466797Z" fill="#6874F3" fill-opacity="1"/></g></g><g style="opacity:0.30000001192092896;" filter="url(#master_svg5_412_29351)"><g><path d="M1024.9399084472657,703.7811678466796C774.4189084472656,743.6951678466796,520.4529084472656,641.2242678466797,424.7869084472656,585.0001678466797C346.8729084472656,586.1152178466797,149.60890844726563,656.4811678466797,-16.133791552734376,929.0191678466797C-223.3120915527344,1269.6911678466797,664.3609084472656,1020.9911678466797,1099.3999084472657,1034.1611678466797C1534.4399084472657,1047.3311678466798,1338.0999084472655,653.8891678466797,1024.9399084472657,703.7811678466796Z" fill="#8B94F6" fill-opacity="1"/></g></g><g style="opacity:0.4000000059604645;" filter="url(#master_svg6_412_29357)"><g><path d="M713.0779084472656,770.3776951904297C762.0299084472656,814.2846951904297,807.6999084472657,741.6996951904297,865.5279084472656,668.8996951904297Q1091.5599084472656,697.8756951904297,1284.9999084472656,770.3766951904297C1076.0999084472655,440.7086951904297,955.9509084472656,555.0670051904297,865.5279084472656,668.8996951904297C758.7589084472656,655.2126951904297,644.7169084472656,651.2369951904296,540.3569084472656,669.2006951904297C537.3709084472656,669.7146951904297,534.3659084472656,670.2556951904297,531.3419084472656,670.8236951904297C415.8249084472656,611.9099951904296,264.21490844726566,592.0239951904297,73.99990844726562,847.8146951904297Q340.0509084472656,706.7176951904297,531.3419084472656,670.8236951904297C607.2789084472656,709.5506951904297,667.6199084472656,765.1436951904298,713.0779084472656,770.3776951904297Z" fill="url(#master_svg7_412_25688)" fill-opacity="1"/></g></g></g></g></svg>